<svg width="30" height="30" viewBox="0 0 30 30" fill="none" xmlns="http://www.w3.org/2000/svg">
<path fill-rule="evenodd" clip-rule="evenodd" d="M14.9994 0C6.71597 0 0 6.88476 0 15.3792C0 22.1743 4.29732 27.9389 10.2571 29.9728C11.007 30.115 11.282 29.6396 11.282 29.2333C11.282 28.8668 11.2683 27.6557 11.262 26.3702C7.0897 27.3007 6.20849 24.5555 6.20849 24.5555C5.52602 22.7779 4.54356 22.305 4.54356 22.305C3.18237 21.3502 4.64606 21.3707 4.64606 21.3707C6.15224 21.4796 6.94471 22.956 6.94471 22.956C8.28216 25.3065 10.4533 24.6272 11.3095 24.2338C11.4445 23.2393 11.8333 22.5613 12.262 22.1768C8.93088 21.7885 5.42852 20.4697 5.42852 14.5769C5.42852 12.898 6.01475 11.5254 6.97471 10.4489C6.81847 10.0606 6.30474 8.49701 7.1197 6.37853C7.1197 6.37853 8.37965 5.96585 11.2458 7.95489C12.442 7.61399 13.7244 7.44354 14.9994 7.43713C16.2743 7.44354 17.558 7.61399 18.7567 7.95489C21.6191 5.96457 22.8778 6.37853 22.8778 6.37853C23.694 8.49701 23.1803 10.0606 23.0253 10.4489C23.9865 11.5254 24.569 12.898 24.569 14.5769C24.569 20.4838 21.0604 21.7846 17.7205 22.1653C18.258 22.642 18.738 23.5789 18.738 25.013C18.738 27.0712 18.7205 28.7271 18.7205 29.2333C18.7205 29.6421 18.9905 30.1227 19.7504 29.9715C25.7077 27.935 30 22.173 30 15.3805C29.9987 6.88604 23.2828 0 14.9994 0Z" fill="#8C8C8C"/>
<path d="M5.68117 22.082C5.64867 22.1589 5.53117 22.1819 5.42367 22.1294C5.31492 22.0794 5.25367 21.9743 5.28867 21.8987C5.32117 21.8205 5.43867 21.7987 5.54742 21.8513C5.65617 21.9 5.71867 22.0051 5.68117 22.082Z" fill="#8C8C8C"/>
<path d="M6.28843 22.7766C6.21718 22.8445 6.07718 22.8125 5.98218 22.7061C5.88343 22.5985 5.86593 22.4549 5.93843 22.387C6.01218 22.3191 6.14718 22.3511 6.24593 22.4588C6.34468 22.5652 6.36343 22.7074 6.28843 22.7766Z" fill="#8C8C8C"/>
<path d="M6.87965 23.6622C6.78715 23.7276 6.63715 23.6661 6.54465 23.5302C6.45215 23.3931 6.45215 23.229 6.54715 23.1637C6.63965 23.0983 6.7884 23.1573 6.88215 23.2931C6.9734 23.4315 6.9734 23.5956 6.87965 23.6622Z" fill="#8C8C8C"/>
<path d="M7.68982 24.5183C7.60732 24.6118 7.43232 24.5862 7.30482 24.4593C7.17357 24.335 7.13732 24.1594 7.21982 24.0658C7.30357 23.9723 7.47982 23.9992 7.60857 24.1248C7.73857 24.2491 7.77732 24.426 7.68982 24.5183Z" fill="#8C8C8C"/>
<path d="M8.80835 25.0143C8.7721 25.1347 8.60335 25.1898 8.43335 25.1386C8.26335 25.086 8.1521 24.945 8.1871 24.8233C8.2221 24.7015 8.3921 24.6452 8.56335 24.7003C8.7321 24.7515 8.84335 24.8925 8.80835 25.0143Z" fill="#8C8C8C"/>
<path d="M10.0359 25.1065C10.0396 25.2334 9.89587 25.3385 9.71712 25.3411C9.53837 25.3449 9.39212 25.2424 9.39087 25.1181C9.39087 24.9899 9.53212 24.8861 9.71087 24.8822C9.88962 24.8784 10.0359 24.9809 10.0359 25.1065Z" fill="#8C8C8C"/>
<path d="M11.1784 24.9079C11.1997 25.0309 11.0759 25.1591 10.8984 25.1924C10.7247 25.2257 10.5634 25.1488 10.5409 25.0258C10.5197 24.8989 10.6459 24.772 10.8197 24.7387C10.9959 24.7067 11.1559 24.781 11.1784 24.9079Z" fill="#8C8C8C"/>
</svg>
