<svg width="30" height="30" viewBox="0 0 30 30" fill="none" xmlns="http://www.w3.org/2000/svg">
<path d="M25.562 25.5633H21.1166V18.6015C21.1166 16.9413 21.0871 14.805 18.8045 14.805C16.4894 14.805 16.1346 16.6131 16.1346 18.4818V25.5633H11.6907V11.2464H15.9587V13.2024H16.0178C16.8886 11.7151 18.5059 10.8266 20.2282 10.8901C24.7341 10.8901 25.5635 13.8543 25.5635 17.7086L25.562 25.5633ZM6.67472 9.28903C5.24959 9.28903 4.09501 8.13439 4.09501 6.70921C4.09501 5.28403 5.24959 4.12939 6.67472 4.12939C8.09984 4.12939 9.25442 5.28403 9.25442 6.70921C9.25442 8.13439 8.09984 9.28903 6.67472 9.28903ZM8.89666 25.5633H4.44685V11.2464H8.89666V25.5633ZM27.7781 0.00168034H2.21308C1.00527 -0.0116253 0.0147834 0.956731 0 2.16459V27.8356C0.0147834 29.045 1.00527 30.0133 2.21308 30H27.7781C28.9888 30.0148 29.9837 29.0464 30 27.8356V2.16311C29.9823 0.952295 28.9873 -0.0160606 27.7781 0.000201869" fill="#8C8C8C"/>
</svg>
