<svg width="30" height="30" viewBox="0 0 30 30" fill="none" xmlns="http://www.w3.org/2000/svg">
<g clip-path="url(#clip0_86_64)">
<path d="M15.0001 0C11.0232 0.00430135 7.21035 1.58604 4.39824 4.39815C1.58612 7.21026 0.00438815 11.0231 8.67937e-05 15C-0.157413 26.9662 13.9488 34.2863 23.6251 27.2712C23.7641 27.1788 23.8832 27.0593 23.9754 26.92C24.0675 26.7807 24.1308 26.6244 24.1615 26.4602C24.1922 26.2961 24.1897 26.1274 24.1541 25.9643C24.1185 25.8011 24.0506 25.6467 23.9544 25.5102C23.8582 25.3737 23.7356 25.2579 23.5938 25.1696C23.4521 25.0813 23.2941 25.0222 23.1292 24.996C22.9642 24.9698 22.7957 24.9768 22.6336 25.0168C22.4714 25.0568 22.3189 25.1289 22.1851 25.2288C14.1251 31.07 2.37509 24.9725 2.50009 15C3.18634 -1.5825 26.8163 -1.57875 27.5001 15V17.5C27.5001 18.163 27.2367 18.7989 26.7679 19.2678C26.299 19.7366 25.6631 20 25.0001 20C24.337 20 23.7012 19.7366 23.2323 19.2678C22.7635 18.7989 22.5001 18.163 22.5001 17.5V15C22.1851 5.08875 7.81384 5.09 7.50009 15C7.51464 16.52 7.9894 17.9999 8.86182 19.2447C9.73423 20.4895 10.9633 21.4407 12.3872 21.973C13.811 22.5053 15.3627 22.5937 16.8377 22.2266C18.3128 21.8594 19.642 21.0539 20.6501 19.9163C21.1923 20.8733 22.0351 21.6248 23.0477 22.0544C24.0603 22.4839 25.1863 22.5676 26.2513 22.2924C27.3163 22.0172 28.2608 21.3984 28.9386 20.532C29.6163 19.6656 29.9894 18.5999 30.0001 17.5V15C29.9958 11.0231 28.4141 7.21026 25.6019 4.39815C22.7898 1.58604 18.977 0.00430135 15.0001 0ZM15.0001 20C13.674 20 12.4022 19.4732 11.4646 18.5355C10.5269 17.5979 10.0001 16.3261 10.0001 15C10.0001 13.6739 10.5269 12.4021 11.4646 11.4645C12.4022 10.5268 13.674 10 15.0001 10C16.3262 10 17.5979 10.5268 18.5356 11.4645C19.4733 12.4021 20.0001 13.6739 20.0001 15C20.0001 16.3261 19.4733 17.5979 18.5356 18.5355C17.5979 19.4732 16.3262 20 15.0001 20Z" fill="#8C8C8C"/>
</g>
<defs>
<clipPath id="clip0_86_64">
<rect width="30" height="30" fill="white"/>
</clipPath>
</defs>
</svg>
